# xmcd CD database file
#
# Track frame offsets:
#	150
#	32536
#	49308
#	78972
#	109685
#	145164
#	170414
#
# Disc length: 2620 seconds
#
# Revision: 0
# Processed by: cddbd v1.5.2PL0 Copyright (c) Steve Scherf et al.
# Submitted via: CDex 1.51
#
DISCID=520a3a07
DTITLE=ABE RABADE TRIO - Babel de sons
DYEAR=2000
DGENRE=Jazz
TTITLE0=Dicotomía
TTITLE1=Don't smoke anymore, please
TTITLE2=Pequeño poema infinito
TTITLE3=Babel de sons
TTITLE4=Barcelona
TTITLE5=Volvoreta
TTITLE6=Sintese con sintese
EXTD=YEAR: 2000
EXTT0=
EXTT1=
EXTT2=
EXTT3=
EXTT4=
EXTT5=
EXTT6=
PLAYORDER=
